<?xml version="1.0" encoding="UTF-8" standalone="no"?>
<!DOCTYPE svg PUBLIC "-//W3C//DTD SVG 1.1//EN"
 "http://www.w3.org/Graphics/SVG/1.1/DTD/svg11.dtd">
<!-- Generated by graphviz version 2.38.0 (20140413.2041)
 -->
<!-- Title: rz::core::System Pages: 1 -->
<svg width="345pt" height="142pt"
 viewBox="0.00 0.00 345.00 142.00" xmlns="http://www.w3.org/2000/svg" xmlns:xlink="http://www.w3.org/1999/xlink">
<g id="graph0" class="graph" transform="scale(1 1) rotate(0) translate(4 138)">
<title>rz::core::System</title>
<polygon fill="white" stroke="none" points="-4,4 -4,-138 341,-138 341,4 -4,4"/>
<!-- Node1 -->
<g id="node1" class="node"><title>Node1</title>
<polygon fill="#bfbfbf" stroke="black" points="248,-57.5 248,-76.5 337,-76.5 337,-57.5 248,-57.5"/>
<text text-anchor="middle" x="292.5" y="-64.5" font-family="Helvetica,sans-Serif" font-size="10.00">rz::core::System</text>
</g>
<!-- Node2 -->
<g id="node2" class="node"><title>Node2</title>
<g id="a_node2"><a xlink:href="classrz_1_1objectpool_1_1_object_pool.html" target="_top" xlink:title="Stores objects of any type with size upto sizeof(std::size_t) * 64 Bytes in contiguous aligned memory...">
<polygon fill="white" stroke="black" points="9.5,-114.5 9.5,-133.5 138.5,-133.5 138.5,-114.5 9.5,-114.5"/>
<text text-anchor="middle" x="74" y="-121.5" font-family="Helvetica,sans-Serif" font-size="10.00">rz::objectpool::ObjectPool</text>
</a>
</g>
</g>
<!-- Node2&#45;&gt;Node1 -->
<g id="edge1" class="edge"><title>Node2&#45;&gt;Node1</title>
<path fill="none" stroke="#9a32cd" stroke-dasharray="5,2" d="M143.95,-112.562C171.051,-107.342 202.257,-100.425 230,-92 243.896,-87.78 259.011,-81.6578 270.779,-76.5282"/>
<polygon fill="#9a32cd" stroke="#9a32cd" points="142.958,-109.187 133.779,-114.479 144.255,-116.066 142.958,-109.187"/>
<text text-anchor="middle" x="198" y="-110" font-family="Helvetica,sans-Serif" font-size="10.00"> _pool</text>
</g>
<!-- Node3 -->
<g id="node3" class="node"><title>Node3</title>
<g id="a_node3"><a xlink:href="structrz_1_1taskscheduler_1_1_task.html" target="_top" xlink:title="A data structure for representing a Task. ">
<polygon fill="white" stroke="black" points="14.5,-76.5 14.5,-95.5 133.5,-95.5 133.5,-76.5 14.5,-76.5"/>
<text text-anchor="middle" x="74" y="-83.5" font-family="Helvetica,sans-Serif" font-size="10.00">rz::taskscheduler::Task</text>
</a>
</g>
</g>
<!-- Node3&#45;&gt;Node1 -->
<g id="edge2" class="edge"><title>Node3&#45;&gt;Node1</title>
<path fill="none" stroke="#9a32cd" stroke-dasharray="5,2" d="M143.961,-79.948C178.066,-76.9549 218.192,-73.4335 247.981,-70.8192"/>
<polygon fill="#9a32cd" stroke="#9a32cd" points="143.244,-76.4974 133.588,-80.8583 143.856,-83.4706 143.244,-76.4974"/>
<text text-anchor="middle" x="198" y="-80" font-family="Helvetica,sans-Serif" font-size="10.00"> _parentTask</text>
</g>
<!-- Node4 -->
<g id="node4" class="node"><title>Node4</title>
<g id="a_node4"><a xlink:href="struct_u_u_i_d64.html" target="_top" xlink:title="UUID64">
<polygon fill="white" stroke="black" points="47.5,-38.5 47.5,-57.5 100.5,-57.5 100.5,-38.5 47.5,-38.5"/>
<text text-anchor="middle" x="74" y="-45.5" font-family="Helvetica,sans-Serif" font-size="10.00">UUID64</text>
</a>
</g>
</g>
<!-- Node4&#45;&gt;Node1 -->
<g id="edge3" class="edge"><title>Node4&#45;&gt;Node1</title>
<path fill="none" stroke="#9a32cd" stroke-dasharray="5,2" d="M110.618,-49.0239C142.09,-50.1773 189.198,-52.5103 230,-57 235.806,-57.6389 241.899,-58.4532 247.9,-59.3405"/>
<polygon fill="#9a32cd" stroke="#9a32cd" points="110.69,-45.5245 100.575,-48.6766 110.448,-52.5203 110.69,-45.5245"/>
<text text-anchor="middle" x="198" y="-60" font-family="Helvetica,sans-Serif" font-size="10.00"> _id</text>
</g>
<!-- Node5 -->
<g id="node5" class="node"><title>Node5</title>
<g id="a_node5"><a xlink:href="classrz_1_1eventstream_1_1_event_stream.html" target="_top" xlink:title="Handles receiving and sending Events to and from EventStreams. ">
<polygon fill="white" stroke="black" points="0,-0.5 0,-19.5 148,-19.5 148,-0.5 0,-0.5"/>
<text text-anchor="middle" x="74" y="-7.5" font-family="Helvetica,sans-Serif" font-size="10.00">rz::eventstream::EventStream</text>
</a>
</g>
</g>
<!-- Node5&#45;&gt;Node1 -->
<g id="edge4" class="edge"><title>Node5&#45;&gt;Node1</title>
<path fill="none" stroke="#9a32cd" stroke-dasharray="5,2" d="M158.215,-19.2468C181.772,-23.1253 207.198,-28.5309 230,-36 246.362,-41.3596 263.776,-50.4983 275.881,-57.4687"/>
<polygon fill="#9a32cd" stroke="#9a32cd" points="158.669,-15.7753 148.246,-17.6765 157.58,-22.6901 158.669,-15.7753"/>
<text text-anchor="middle" x="198" y="-39" font-family="Helvetica,sans-Serif" font-size="10.00"> _eventStream</text>
</g>
</g>
</svg>
