<?xml version="1.0" encoding="UTF-8" standalone="no"?>
<!DOCTYPE svg PUBLIC "-//W3C//DTD SVG 1.1//EN"
 "http://www.w3.org/Graphics/SVG/1.1/DTD/svg11.dtd">
<!-- Generated by graphviz version 2.38.0 (20140413.2041)
 -->
<!-- Title: G Pages: 1 -->
<svg width="541pt" height="423pt"
 viewBox="0.00 0.00 541.24 423.00" xmlns="http://www.w3.org/2000/svg" xmlns:xlink="http://www.w3.org/1999/xlink">
<g id="graph0" class="graph" transform="scale(1 1) rotate(0) translate(4 419)">
<title>G</title>
<polygon fill="white" stroke="none" points="-4,4 -4,-419 537.239,-419 537.239,4 -4,4"/>
<!-- BEGIN main() loop -->
<g id="node1" class="node"><title>BEGIN main() loop</title>
<ellipse fill="none" stroke="black" cx="244.692" cy="-397" rx="81.7856" ry="18"/>
<text text-anchor="middle" x="244.692" y="-393.3" font-family="Times,serif" font-size="14.00">BEGIN main() loop</text>
</g>
<!-- Space::update -->
<g id="node2" class="node"><title>Space::update</title>
<ellipse fill="none" stroke="black" cx="105.692" cy="-324" rx="59.5901" ry="18"/>
<text text-anchor="middle" x="105.692" y="-320.3" font-family="Times,serif" font-size="14.00">Space::update</text>
</g>
<!-- BEGIN main() loop&#45;&gt;Space::update -->
<g id="edge2" class="edge"><title>BEGIN main() loop&#45;&gt;Space::update</title>
<path fill="none" stroke="black" d="M213.843,-380.243C193.268,-369.733 166.066,-355.839 144.091,-344.614"/>
<polygon fill="black" stroke="black" points="145.525,-341.416 135.027,-339.984 142.34,-347.65 145.525,-341.416"/>
</g>
<!-- remaining &gt;= 0.0 -->
<g id="node5" class="node"><title>remaining &gt;= 0.0</title>
<polygon fill="none" stroke="black" points="238.692,-269 134.962,-251 238.692,-233 342.422,-251 238.692,-269"/>
<text text-anchor="middle" x="238.692" y="-247.3" font-family="Times,serif" font-size="14.00">remaining &gt;= 0.0</text>
</g>
<!-- Space::update&#45;&gt;remaining &gt;= 0.0 -->
<g id="edge3" class="edge"><title>Space::update&#45;&gt;remaining &gt;= 0.0</title>
<path fill="none" stroke="black" d="M133.898,-307.943C154.848,-296.759 183.49,-281.469 205.536,-269.7"/>
<polygon fill="black" stroke="black" points="207.366,-272.691 214.539,-264.894 204.069,-266.515 207.366,-272.691"/>
</g>
<!-- Space::updateSystems -->
<g id="node3" class="node"><title>Space::updateSystems</title>
<ellipse fill="none" stroke="black" cx="89.692" cy="-164" rx="89.8845" ry="18"/>
<text text-anchor="middle" x="89.692" y="-160.3" font-family="Times,serif" font-size="14.00">Space::updateSystems</text>
</g>
<!-- Space::publishEvents -->
<g id="node4" class="node"><title>Space::publishEvents</title>
<ellipse fill="none" stroke="black" cx="92.692" cy="-91" rx="86.3847" ry="18"/>
<text text-anchor="middle" x="92.692" y="-87.3" font-family="Times,serif" font-size="14.00">Space::publishEvents</text>
</g>
<!-- Space::updateSystems&#45;&gt;Space::publishEvents -->
<g id="edge5" class="edge"><title>Space::updateSystems&#45;&gt;Space::publishEvents</title>
<path fill="none" stroke="black" d="M90.4183,-145.813C90.7573,-137.789 91.1689,-128.047 91.5483,-119.069"/>
<polygon fill="black" stroke="black" points="95.0471,-119.168 91.9725,-109.029 88.0534,-118.872 95.0471,-119.168"/>
</g>
<!-- remaining &#45;= _intervalMax -->
<g id="node8" class="node"><title>remaining &#45;= _intervalMax</title>
<ellipse fill="none" stroke="black" cx="219.692" cy="-18" rx="107.781" ry="18"/>
<text text-anchor="middle" x="219.692" y="-14.3" font-family="Times,serif" font-size="14.00">remaining &#45;= _intervalMax</text>
</g>
<!-- Space::publishEvents&#45;&gt;remaining &#45;= _intervalMax -->
<g id="edge6" class="edge"><title>Space::publishEvents&#45;&gt;remaining &#45;= _intervalMax</title>
<path fill="none" stroke="black" d="M121.51,-73.889C139.2,-63.9993 162.07,-51.2137 181.287,-40.4707"/>
<polygon fill="black" stroke="black" points="183.086,-43.4748 190.106,-35.54 179.67,-37.3648 183.086,-43.4748"/>
</g>
<!-- remaining &gt;= 0.0&#45;&gt;BEGIN main() loop -->
<g id="edge8" class="edge"><title>remaining &gt;= 0.0&#45;&gt;BEGIN main() loop</title>
<path fill="none" stroke="black" d="M239.403,-269.062C240.426,-293.624 242.326,-339.211 243.548,-368.546"/>
<polygon fill="black" stroke="black" points="240.067,-369.07 243.98,-378.916 247.061,-368.779 240.067,-369.07"/>
<text text-anchor="middle" x="255.692" y="-320.3" font-family="Times,serif" font-size="14.00">false</text>
</g>
<!-- remaining &gt;= 0.0&#45;&gt;Space::updateSystems -->
<g id="edge4" class="edge"><title>remaining &gt;= 0.0&#45;&gt;Space::updateSystems</title>
<path fill="none" stroke="black" d="M215.737,-236.905C192.019,-223.374 154.628,-202.044 126.721,-186.124"/>
<polygon fill="black" stroke="black" points="128.444,-183.077 118.023,-181.162 124.975,-189.157 128.444,-183.077"/>
<text text-anchor="middle" x="184.692" y="-203.8" font-family="Times,serif" font-size="14.00">true</text>
</g>
<!-- rank1 -->
<g id="node6" class="node"><title>rank1</title>
</g>
<!-- rank2 -->
<g id="node7" class="node"><title>rank2</title>
</g>
<!-- rank1&#45;&gt;rank2 -->
<g id="edge1" class="edge"><title>rank1&#45;&gt;rank2</title>
<path fill="none" stroke="white" d="M502.692,-378.813C502.692,-370.789 502.692,-361.047 502.692,-352.069"/>
<polygon fill="white" stroke="white" points="506.192,-352.029 502.692,-342.029 499.192,-352.029 506.192,-352.029"/>
</g>
<!-- remaining &#45;= _intervalMax&#45;&gt;remaining &gt;= 0.0 -->
<g id="edge7" class="edge"><title>remaining &#45;= _intervalMax&#45;&gt;remaining &gt;= 0.0</title>
<path fill="none" stroke="black" d="M221.091,-36.0109C224.36,-75.751 232.519,-174.95 236.474,-223.03"/>
<polygon fill="black" stroke="black" points="232.987,-223.335 237.295,-233.014 239.963,-222.761 232.987,-223.335"/>
</g>
</g>
</svg>
