<?xml version="1.0" encoding="UTF-8" standalone="no"?>
<!DOCTYPE svg PUBLIC "-//W3C//DTD SVG 1.1//EN"
 "http://www.w3.org/Graphics/SVG/1.1/DTD/svg11.dtd">
<!-- Generated by graphviz version 2.38.0 (20140413.2041)
 -->
<!-- Title: G Pages: 1 -->
<svg width="623pt" height="254pt"
 viewBox="0.00 0.00 623.00 254.00" xmlns="http://www.w3.org/2000/svg" xmlns:xlink="http://www.w3.org/1999/xlink">
<g id="graph0" class="graph" transform="scale(1 1) rotate(0) translate(4 250)">
<title>G</title>
<polygon fill="white" stroke="none" points="-4,4 -4,-250 619,-250 619,4 -4,4"/>
<g id="clust1" class="cluster"><title>cluster_heap</title>
<polygon fill="none" stroke="black" points="219,-91 219,-238 398,-238 398,-91 219,-91"/>
<text text-anchor="middle" x="308.5" y="-222.8" font-family="Times,serif" font-size="14.00">OS HEAP</text>
</g>
<g id="clust2" class="cluster"><title>cluster_bar</title>
<polygon fill="none" stroke="black" points="313,-8 313,-83 607,-83 607,-8 313,-8"/>
<text text-anchor="middle" x="460" y="-67.8" font-family="Times,serif" font-size="14.00">BarSystem::ObjectPool</text>
</g>
<g id="clust3" class="cluster"><title>cluster_foo</title>
<polygon fill="none" stroke="black" points="8,-8 8,-83 305,-83 305,-8 8,-8"/>
<text text-anchor="middle" x="156.5" y="-67.8" font-family="Times,serif" font-size="14.00">FooSystem::ObjectPool</text>
</g>
<!-- S -->
<g id="node1" class="node"><title>S</title>
<ellipse fill="none" stroke="black" cx="308" cy="-189" rx="31.6951" ry="18"/>
<text text-anchor="middle" x="308" y="-185.3" font-family="Times,serif" font-size="14.00">Space</text>
</g>
<!-- E0 -->
<g id="node2" class="node"><title>E0</title>
<ellipse fill="none" stroke="black" cx="263" cy="-117" rx="36.2938" ry="18"/>
<text text-anchor="middle" x="263" y="-113.3" font-family="Times,serif" font-size="14.00">Entity0</text>
</g>
<!-- S&#45;&gt;E0 -->
<g id="edge1" class="edge"><title>S&#45;&gt;E0</title>
<path fill="none" stroke="black" d="M297.563,-171.765C292.133,-163.317 285.371,-152.799 279.272,-143.312"/>
<polygon fill="black" stroke="black" points="282.045,-141.153 273.693,-134.633 276.156,-144.938 282.045,-141.153"/>
</g>
<!-- E1 -->
<g id="node5" class="node"><title>E1</title>
<ellipse fill="none" stroke="black" cx="354" cy="-117" rx="36.2938" ry="18"/>
<text text-anchor="middle" x="354" y="-113.3" font-family="Times,serif" font-size="14.00">Entity1</text>
</g>
<!-- S&#45;&gt;E1 -->
<g id="edge4" class="edge"><title>S&#45;&gt;E1</title>
<path fill="none" stroke="black" d="M318.669,-171.765C324.277,-163.23 331.275,-152.582 337.559,-143.019"/>
<polygon fill="black" stroke="black" points="340.503,-144.913 343.069,-134.633 334.653,-141.068 340.503,-144.913"/>
</g>
<!-- F0 -->
<g id="node3" class="node"><title>F0</title>
<ellipse fill="none" stroke="black" cx="82" cy="-34" rx="65.7887" ry="18"/>
<text text-anchor="middle" x="82" y="-30.3" font-family="Times,serif" font-size="14.00">FooComponent</text>
</g>
<!-- E0&#45;&gt;F0 -->
<g id="edge2" class="edge"><title>E0&#45;&gt;F0</title>
<path fill="none" stroke="black" d="M230.773,-108.549C209.074,-102.936 180.126,-94.2785 156,-83 140.784,-75.8868 125.022,-66.0571 111.975,-57.1447"/>
<polygon fill="black" stroke="black" points="113.619,-54.0235 103.416,-51.1657 109.61,-59.7619 113.619,-54.0235"/>
</g>
<!-- B0 -->
<g id="node4" class="node"><title>B0</title>
<ellipse fill="none" stroke="black" cx="386" cy="-34" rx="64.9885" ry="18"/>
<text text-anchor="middle" x="386" y="-30.3" font-family="Times,serif" font-size="14.00">BarComponent</text>
</g>
<!-- E0&#45;&gt;B0 -->
<g id="edge3" class="edge"><title>E0&#45;&gt;B0</title>
<path fill="none" stroke="black" d="M284.144,-102.076C303.185,-89.537 331.464,-70.9138 353.397,-56.47"/>
<polygon fill="black" stroke="black" points="355.333,-59.386 361.76,-50.963 351.483,-53.5398 355.333,-59.386"/>
</g>
<!-- F1 -->
<g id="node6" class="node"><title>F1</title>
<ellipse fill="none" stroke="black" cx="231" cy="-34" rx="65.7887" ry="18"/>
<text text-anchor="middle" x="231" y="-30.3" font-family="Times,serif" font-size="14.00">FooComponent</text>
</g>
<!-- E1&#45;&gt;F1 -->
<g id="edge5" class="edge"><title>E1&#45;&gt;F1</title>
<path fill="none" stroke="black" d="M332.856,-102.076C313.815,-89.537 285.536,-70.9138 263.603,-56.47"/>
<polygon fill="black" stroke="black" points="265.517,-53.5398 255.24,-50.963 261.667,-59.386 265.517,-53.5398"/>
</g>
<!-- B1 -->
<g id="node7" class="node"><title>B1</title>
<ellipse fill="none" stroke="black" cx="534" cy="-34" rx="64.9885" ry="18"/>
<text text-anchor="middle" x="534" y="-30.3" font-family="Times,serif" font-size="14.00">BarComponent</text>
</g>
<!-- E1&#45;&gt;B1 -->
<g id="edge6" class="edge"><title>E1&#45;&gt;B1</title>
<path fill="none" stroke="black" d="M386.395,-108.383C407.836,-102.75 436.269,-94.1322 460,-83 475.207,-75.8666 490.968,-66.0341 504.016,-57.1249"/>
<polygon fill="black" stroke="black" points="506.38,-59.7432 512.576,-51.1491 502.373,-54.0035 506.38,-59.7432"/>
</g>
</g>
</svg>
