<?xml version="1.0" encoding="UTF-8" standalone="no"?>
<!DOCTYPE svg PUBLIC "-//W3C//DTD SVG 1.1//EN"
 "http://www.w3.org/Graphics/SVG/1.1/DTD/svg11.dtd">
<!-- Generated by graphviz version 2.38.0 (20140413.2041)
 -->
<!-- Title: Graphical Class Hierarchy Pages: 1 -->
<svg width="235pt" height="88pt"
 viewBox="0.00 0.00 235.00 88.00" xmlns="http://www.w3.org/2000/svg" xmlns:xlink="http://www.w3.org/1999/xlink">
<g id="graph0" class="graph" transform="scale(1 1) rotate(0) translate(4 84)">
<title>Graphical Class Hierarchy</title>
<polygon fill="white" stroke="none" points="-4,4 -4,-84 231,-84 231,4 -4,4"/>
<!-- Node1 -->
<g id="node1" class="node"><title>Node1</title>
<polygon fill="white" stroke="#bfbfbf" points="0,-30 0,-49 90,-49 90,-30 0,-30"/>
<text text-anchor="middle" x="45" y="-37" font-family="Helvetica,sans-Serif" font-size="10.00">invalid_argument</text>
</g>
<!-- Node2 -->
<g id="node2" class="node"><title>Node2</title>
<g id="a_node2"><a xlink:href="classrz_1_1objectpool_1_1error_1_1_invalid_pointer.html" target="_top" xlink:title="rz::objectpool::error\l::InvalidPointer">
<polygon fill="white" stroke="black" points="126,-49.5 126,-79.5 227,-79.5 227,-49.5 126,-49.5"/>
<text text-anchor="start" x="134" y="-67.5" font-family="Helvetica,sans-Serif" font-size="10.00">rz::objectpool::error</text>
<text text-anchor="middle" x="176.5" y="-56.5" font-family="Helvetica,sans-Serif" font-size="10.00">::InvalidPointer</text>
</a>
</g>
</g>
<!-- Node1&#45;&gt;Node2 -->
<g id="edge1" class="edge"><title>Node1&#45;&gt;Node2</title>
<path fill="none" stroke="midnightblue" d="M100.038,-49.9321C108.546,-51.5745 117.307,-53.2659 125.713,-54.8885"/>
<polygon fill="midnightblue" stroke="midnightblue" points="100.687,-46.4927 90.2044,-48.0337 99.3596,-53.3658 100.687,-46.4927"/>
</g>
<!-- Node3 -->
<g id="node3" class="node"><title>Node3</title>
<g id="a_node3"><a xlink:href="classrz_1_1objectpool_1_1error_1_1_type_mismatch.html" target="_top" xlink:title="rz::objectpool::error\l::TypeMismatch">
<polygon fill="white" stroke="black" points="126,-0.5 126,-30.5 227,-30.5 227,-0.5 126,-0.5"/>
<text text-anchor="start" x="134" y="-18.5" font-family="Helvetica,sans-Serif" font-size="10.00">rz::objectpool::error</text>
<text text-anchor="middle" x="176.5" y="-7.5" font-family="Helvetica,sans-Serif" font-size="10.00">::TypeMismatch</text>
</a>
</g>
</g>
<!-- Node1&#45;&gt;Node3 -->
<g id="edge2" class="edge"><title>Node1&#45;&gt;Node3</title>
<path fill="none" stroke="midnightblue" d="M100.038,-29.4852C108.546,-27.9085 117.307,-26.2848 125.713,-24.727"/>
<polygon fill="midnightblue" stroke="midnightblue" points="99.3991,-26.044 90.2044,-31.3077 100.675,-32.9268 99.3991,-26.044"/>
</g>
</g>
</svg>
