<?xml version="1.0" encoding="UTF-8" standalone="no"?>
<!DOCTYPE svg PUBLIC "-//W3C//DTD SVG 1.1//EN"
 "http://www.w3.org/Graphics/SVG/1.1/DTD/svg11.dtd">
<!-- Generated by graphviz version 2.38.0 (20140413.2041)
 -->
<!-- Title: rz::eventstream::Event Pages: 1 -->
<svg width="218pt" height="95pt"
 viewBox="0.00 0.00 217.50 95.00" xmlns="http://www.w3.org/2000/svg" xmlns:xlink="http://www.w3.org/1999/xlink">
<g id="graph0" class="graph" transform="scale(1 1) rotate(0) translate(4 91)">
<title>rz::eventstream::Event</title>
<polygon fill="white" stroke="none" points="-4,4 -4,-91 213.5,-91 213.5,4 -4,4"/>
<!-- Node1 -->
<g id="node1" class="node"><title>Node1</title>
<polygon fill="#bfbfbf" stroke="black" points="68,-0.5 68,-19.5 184,-19.5 184,-0.5 68,-0.5"/>
<text text-anchor="middle" x="126" y="-7.5" font-family="Helvetica,sans-Serif" font-size="10.00">rz::eventstream::Event</text>
</g>
<!-- Node2 -->
<g id="node2" class="node"><title>Node2</title>
<g id="a_node2"><a xlink:href="structrz_1_1eventstream_1_1_event_type.html" target="_top" xlink:title="The EventType is used to determine how to process an Event. ">
<polygon fill="white" stroke="black" points="0,-67.5 0,-86.5 138,-86.5 138,-67.5 0,-67.5"/>
<text text-anchor="middle" x="69" y="-74.5" font-family="Helvetica,sans-Serif" font-size="10.00">rz::eventstream::EventType</text>
</a>
</g>
</g>
<!-- Node2&#45;&gt;Node1 -->
<g id="edge1" class="edge"><title>Node2&#45;&gt;Node1</title>
<path fill="none" stroke="#9a32cd" stroke-dasharray="5,2" d="M83.351,-59.6348C94.4985,-46.9228 109.516,-29.7978 118.435,-19.6273"/>
<polygon fill="#9a32cd" stroke="#9a32cd" points="80.649,-57.4075 76.6873,-67.2338 85.9121,-62.0228 80.649,-57.4075"/>
<text text-anchor="middle" x="112" y="-41" font-family="Helvetica,sans-Serif" font-size="10.00"> type</text>
</g>
<!-- Node3 -->
<g id="node3" class="node"><title>Node3</title>
<g id="a_node3"><a xlink:href="struct_u_u_i_d64.html" target="_top" xlink:title="UUID64">
<polygon fill="white" stroke="black" points="156.5,-67.5 156.5,-86.5 209.5,-86.5 209.5,-67.5 156.5,-67.5"/>
<text text-anchor="middle" x="183" y="-74.5" font-family="Helvetica,sans-Serif" font-size="10.00">UUID64</text>
</a>
</g>
</g>
<!-- Node3&#45;&gt;Node1 -->
<g id="edge2" class="edge"><title>Node3&#45;&gt;Node1</title>
<path fill="none" stroke="#9a32cd" stroke-dasharray="5,2" d="M168.649,-59.6348C157.502,-46.9228 142.484,-29.7978 133.565,-19.6273"/>
<polygon fill="#9a32cd" stroke="#9a32cd" points="166.088,-62.0228 175.313,-67.2338 171.351,-57.4075 166.088,-62.0228"/>
<text text-anchor="middle" x="178" y="-41" font-family="Helvetica,sans-Serif" font-size="10.00"> recipient</text>
</g>
</g>
</svg>
