<?xml version="1.0" encoding="UTF-8" standalone="no"?>
<!DOCTYPE svg PUBLIC "-//W3C//DTD SVG 1.1//EN"
 "http://www.w3.org/Graphics/SVG/1.1/DTD/svg11.dtd">
<!-- Generated by graphviz version 2.38.0 (20140413.2041)
 -->
<!-- Title: rz::core::event::data::SYSTEM_NEW_COMPONENT Pages: 1 -->
<svg width="172pt" height="106pt"
 viewBox="0.00 0.00 172.00 106.00" xmlns="http://www.w3.org/2000/svg" xmlns:xlink="http://www.w3.org/1999/xlink">
<g id="graph0" class="graph" transform="scale(1 1) rotate(0) translate(4 102)">
<title>rz::core::event::data::SYSTEM_NEW_COMPONENT</title>
<polygon fill="white" stroke="none" points="-4,4 -4,-102 168,-102 168,4 -4,4"/>
<!-- Node1 -->
<g id="node1" class="node"><title>Node1</title>
<polygon fill="#bfbfbf" stroke="black" points="0,-0.5 0,-30.5 164,-30.5 164,-0.5 0,-0.5"/>
<text text-anchor="start" x="8" y="-18.5" font-family="Helvetica,sans-Serif" font-size="10.00">rz::core::event::data</text>
<text text-anchor="middle" x="82" y="-7.5" font-family="Helvetica,sans-Serif" font-size="10.00">::SYSTEM_NEW_COMPONENT</text>
</g>
<!-- Node2 -->
<g id="node2" class="node"><title>Node2</title>
<g id="a_node2"><a xlink:href="structrz_1_1core_1_1_component_type.html" target="_top" xlink:title="Denotes the type of a derived Component object. ">
<polygon fill="white" stroke="black" points="18,-78.5 18,-97.5 146,-97.5 146,-78.5 18,-78.5"/>
<text text-anchor="middle" x="82" y="-85.5" font-family="Helvetica,sans-Serif" font-size="10.00">rz::core::ComponentType</text>
</a>
</g>
</g>
<!-- Node2&#45;&gt;Node1 -->
<g id="edge1" class="edge"><title>Node2&#45;&gt;Node1</title>
<path fill="none" stroke="#9a32cd" stroke-dasharray="5,2" d="M82,-68.2362C82,-56.4079 82,-41.3829 82,-30.5762"/>
<polygon fill="#9a32cd" stroke="#9a32cd" points="78.5001,-68.3553 82,-78.3553 85.5001,-68.3554 78.5001,-68.3553"/>
<text text-anchor="middle" x="93" y="-52" font-family="Helvetica,sans-Serif" font-size="10.00"> type</text>
</g>
</g>
</svg>
